<svg id="Capa_1" enable-background="new 0 0 512.005 512.005" height="512" viewBox="0 0 512.005 512.005" width="512" xmlns="http://www.w3.org/2000/svg"><g><path d="m110.963 182.376c-8.59 1.99-13.62 10.95-10.85 19.32l8.67 26.2-26.2-8.67c-8.36-2.76-17.33 2.24-19.32 10.85-18.91 81.34 84.64 145.16 158.88 120.74 2.26-.75 4.28-2.01 5.92-3.64 1.64-1.64 2.9-3.66 3.64-5.92 22.99-69.911-35.13-178.791-120.74-158.88z" fill="#ff8fb8"/><path d="m231.703 341.255c-.74 2.26-2 4.28-3.64 5.92l-119.28-119.28-8.67-26.2c-2.77-8.37 2.26-17.33 10.85-19.32 85.61-19.91 143.73 88.97 120.74 158.88z" fill="#ff5f96"/><g><path d="m343.033 410.209-32.33 6.48 6.43-32.15c1.95-9.76-5.97-18.68-15.87-17.9-57.53 4.46-95.2 79.01-84.21 132 .61 2.94 2.07 5.55 4.12 7.58 2.04 2.05 4.68 3.49 7.64 4.08 48.87 9.74 128.45-22.74 132.14-84.48.59-9.82-8.27-17.529-17.92-15.61z" fill="#ff8fb8"/><path d="m360.953 425.82c-3.69 61.74-83.27 94.22-132.14 84.48-2.96-.59-5.6-2.03-7.64-4.08l89.53-89.53 32.33-6.48c9.65-1.92 18.51 5.789 17.92 15.61z" fill="#ff5f96"/></g><path d="m448.613 169.985c-1.99-8.58-10.93-13.62-19.32-10.85l-26.2 8.67 8.67-26.2c2.77-8.38-2.26-17.33-10.85-19.32-81.61-18.98-145.05 84.98-120.74 158.88.75 2.26 2.01 4.28 3.64 5.92 1.64 1.64 3.66 2.9 5.92 3.64 69.77 22.95 178.81-35.019 158.88-120.74z" fill="#ff8fb8"/><path d="m289.733 290.725c-2.26-.74-4.28-2-5.92-3.64l119.28-119.28 26.2-8.67c8.39-2.77 17.33 2.27 19.32 10.85 19.93 85.721-89.11 143.69-158.88 120.74z" fill="#ff5f96"/><path d="m184.913.045c-9.9-.76-17.82 8.14-15.87 17.9l6.43 32.16-32.33-6.48c-9.64-1.93-18.51 5.79-17.92 15.6 3.68 61.6 83.11 94.26 132.14 84.49 2.96-.59 5.6-2.04 7.64-4.08 2.05-2.03 3.5-4.64 4.12-7.58 10.95-52.76-26.34-127.52-84.21-132.01z" fill="#ff8fb8"/><path d="m269.123 132.055c-.62 2.94-2.07 5.55-4.12 7.58l-89.53-89.53-6.43-32.16c-1.95-9.76 5.97-18.66 15.87-17.9 57.87 4.49 95.16 79.25 84.21 132.01z" fill="#ff5f96"/></g></svg>