<svg id="Capa_1" enable-background="new 0 0 512.002 512.002" height="512" viewBox="0 0 512.002 512.002" width="512" xmlns="http://www.w3.org/2000/svg"><g><path d="m512.001 214.17c.09-8.35-6.67-15.16-15-15.16h-13.87l11.51-8.6c6.63-4.95 7.99-14.33 3.06-20.96-27.56-37.08-85.35-47.57-131.77-48.15-20.09-59.42-50.44-98.47-86.14-110.5-7.83-2.64-16.33 1.55-18.99 9.38l-4.8 14.13-4.8-14.13c-2.66-7.83-11.16-12.02-18.99-9.38-35.7 12.03-66.05 51.08-86.14 110.5-46.33.58-104.18 11.03-131.77 48.15-4.99 6.71-3.52 16.19 3.22 21.08l10.3 7.48h-12.82c-8.36 0-15.09 6.83-15 15.16.42 37.92 28.74 80.23 78.14 117.21-13.8 44.35-21.68 102.54 5.07 140.21 4.8 6.77 14.2 8.35 20.95 3.52l11.3-8.08-4.19 13.25c-2.51 7.91 1.9 16.36 9.82 18.84 44.1 13.79 97-11.68 134.91-38.5 37.83 26.76 90.77 52.31 134.91 38.5 7.92-2.48 12.33-10.93 9.82-18.84l-4.19-13.25 11.3 8.08c6.75 4.83 16.15 3.25 20.95-3.52 26.75-37.67 18.86-95.87 5.08-140.2 50.07-37.33 77.71-78.32 78.13-116.22z" fill="#ff8fb8"/><path d="m433.871 330.39c13.78 44.33 21.67 102.53-5.08 140.2-4.8 6.77-14.2 8.35-20.95 3.52l-11.3-8.08 4.19 13.25c2.51 7.91-1.9 16.36-9.82 18.84-44.14 13.81-97.08-11.74-134.91-38.5v-425.31l4.8-14.13c2.66-7.83 11.16-12.02 18.99-9.38 35.7 12.03 66.05 51.08 86.14 110.5 46.42.58 104.21 11.07 131.77 48.15 4.93 6.63 3.57 16.01-3.06 20.96l-11.51 8.6h13.87c8.33 0 15.09 6.81 15 15.16-.42 37.9-28.06 78.89-78.13 116.22z" fill="#ff5f96"/><path d="m185.467 363.118c-6.702-4.869-8.188-14.25-3.318-20.952l44.083-60.675c4.867-6.702 14.248-8.189 20.951-3.318 6.702 4.869 8.188 14.25 3.318 20.952l-44.083 60.675c-4.885 6.724-14.27 8.174-20.951 3.318z" fill="#fff2fb"/><path d="m271.001 161.04v75c0 8.28-6.72 15-15 15s-15-6.72-15-15v-75c0-8.29 6.72-15 15-15s15 6.71 15 15z" fill="#fff2fb"/><g fill="#ffdfea"><path d="m271.001 161.04v75c0 8.28-6.72 15-15 15v-105c8.28 0 15 6.71 15 15z"/><path d="m305.584 359.8-44.083-60.674c-4.87-6.702-3.384-16.083 3.318-20.952 6.703-4.869 16.083-3.383 20.951 3.318l44.083 60.675c4.87 6.702 3.384 16.083-3.318 20.952-6.672 4.848-16.061 3.413-20.951-3.319z"/><path d="m270.274 261.399c-2.561-7.879 1.752-16.341 9.631-18.901l71.322-23.174c7.874-2.56 16.34 1.751 18.9 9.631 2.561 7.879-1.752 16.341-9.631 18.901l-71.322 23.174c-7.877 2.56-16.34-1.753-18.9-9.631z"/></g><path d="m222.827 271.03-71.322-23.174c-7.879-2.56-12.191-11.022-9.631-18.901 2.56-7.878 11.021-12.192 18.9-9.631l71.322 23.174c7.879 2.56 12.191 11.022 9.631 18.901s-11.023 12.191-18.9 9.631z" fill="#fff2fb"/><path d="m256.001 221.04c-24.64 0-45 20.04-45 45 0 24.71 20.11 45 45 45 24.7 0 45-20.12 45-45 0-24.8-20.19-45-45-45z" fill="#ff5f96"/><path d="m301.001 266.04c0 24.88-20.3 45-45 45v-90c24.81 0 45 20.2 45 45z" fill="#e30a6c"/></g></svg>